<svg width="399" height="372" viewBox="0 0 399 372" fill="none" xmlns="http://www.w3.org/2000/svg">
<g opacity="0.5">
<path opacity="0.5" d="M199.5 372C309.681 372 399 288.725 399 186C399 83.275 309.681 0 199.5 0C89.3192 0 0 83.275 0 186C0 288.725 89.3192 372 199.5 372Z" fill="url(#paint0_linear)"/>
</g>
<path d="M199.889 366.889C307.746 366.889 395.182 285.37 395.182 184.811C395.182 84.2529 307.746 2.73401 199.889 2.73401C92.0315 2.73401 4.59593 84.2529 4.59593 184.811C4.59593 285.37 92.0315 366.889 199.889 366.889Z" fill="#E2E8DD"/>
<path d="M200.072 367.608C238.232 367.666 275.566 357.249 307.419 337.657C300.222 300.99 272.835 298.9 272.835 298.9H121.809C121.809 298.9 95.9658 300.878 87.8943 334.608C120.734 356.145 159.921 367.673 200.072 367.608Z" fill="#28262C"/>
<path d="M197.997 268.858C250.056 268.858 292.259 229.511 292.259 180.974C292.259 132.437 250.056 93.0906 197.997 93.0906C145.937 93.0906 103.734 132.437 103.734 180.974C103.734 229.511 145.937 268.858 197.997 268.858Z" fill="#333333"/>
<path opacity="0.1" d="M167.574 254.175H227.973V299.226C227.973 306.691 224.793 313.851 219.132 319.131C213.471 324.411 205.793 327.379 197.785 327.381V327.381C189.776 327.381 182.094 324.415 176.431 319.135C170.767 313.854 167.586 306.693 167.586 299.226V254.175H167.574Z" fill="black"/>
<path d="M169.489 252.086H226.081C226.589 252.086 227.076 252.274 227.435 252.609C227.794 252.944 227.996 253.398 227.996 253.871V297.136C227.997 300.835 227.216 304.498 225.698 307.915C224.18 311.333 221.954 314.437 219.149 317.053C216.343 319.668 213.012 321.742 209.347 323.157C205.681 324.571 201.752 325.299 197.785 325.297V325.297C189.776 325.297 182.094 322.331 176.431 317.051C170.767 311.771 167.586 304.609 167.586 297.142V253.871C167.586 253.4 167.786 252.947 168.143 252.613C168.499 252.278 168.983 252.089 169.489 252.086V252.086Z" fill="#FDB797"/>
<path opacity="0.1" d="M167.683 275.44C187.149 282.221 208.576 282.275 228.082 275.595V268.666H167.683V275.44Z" fill="black"/>
<path d="M197.997 279.208C245.81 279.208 284.57 243.07 284.57 198.492C284.57 153.914 245.81 117.777 197.997 117.777C150.183 117.777 111.423 153.914 111.423 198.492C111.423 243.07 150.183 279.208 197.997 279.208Z" fill="#FDB797"/>
<path opacity="0.1" d="M136.329 125.073C136.329 125.073 172.816 194.122 275.739 154.023L251.776 118.992L209.298 104.778L136.329 125.073Z" fill="black"/>
<path d="M136.329 124.06C136.329 124.06 172.816 193.11 275.739 153L251.776 117.969L209.298 103.755L136.329 124.06Z" fill="#333333"/>
<path d="M136.009 119.381C138.469 112.281 142.721 105.834 148.407 100.584C165.436 84.8885 193.355 81.5789 207.674 63.6824C211.104 68.6495 208.452 76.2867 202.53 78.4185C216.249 78.3332 232.146 77.214 239.903 66.6935C241.82 70.8544 242.431 75.4372 241.665 79.909C240.899 84.3809 238.788 88.5582 235.576 91.9554C247.734 92.4884 260.728 100.163 261.494 111.488C262.02 119.035 256.921 126.176 250.295 130.504C243.67 134.831 235.599 136.819 227.682 138.445C204.565 143.204 120.923 163.12 136.009 119.381Z" fill="#333333"/>
<path d="M111.388 212.498C115.837 212.498 119.443 206.194 119.443 198.418C119.443 190.641 115.837 184.337 111.388 184.337C106.94 184.337 103.334 190.641 103.334 198.418C103.334 206.194 106.94 212.498 111.388 212.498Z" fill="#FDB797"/>
<path d="M284.559 212.498C289.007 212.498 292.613 206.194 292.613 198.418C292.613 190.641 289.007 184.337 284.559 184.337C280.111 184.337 276.505 190.641 276.505 198.418C276.505 206.194 280.111 212.498 284.559 212.498Z" fill="#FDB797"/>
<defs>
<linearGradient id="paint0_linear" x1="199.5" y1="372" x2="199.5" y2="0" gradientUnits="userSpaceOnUse">
<stop stop-color="#808080" stop-opacity="0.25"/>
<stop offset="0.54" stop-color="#808080" stop-opacity="0.12"/>
<stop offset="1" stop-color="#808080" stop-opacity="0.1"/>
</linearGradient>
</defs>
</svg>
